# xmcd CD database file
#
# Track frame offsets:
#	150
#	1747
#	11788
#	23070
#	37420
#	39970
#	63328
#	86482
#	112538
#	126999
#	135583
#	149637
#	159867
#	170118
#	172940
#	176054
#	191303
#	217954
#	235662
#	249038
#	271990
#	300506
#	311027
#
# Disc length: 4474 seconds
#
# Revision: 3
# Processed by: cddbd v1.5.1PL2 Copyright (c) Steve Scherf et al.
# Submitted via: cdripper 1,0,33,916
#
DISCID=26117817
DTITLE=Violent Femmes - Add It Up (1981-1993)
DYEAR=1993
DGENRE=Rock
TTITLE0=Into.007
TTITLE1=Waiting.For.The.Bus.007
TTITLE2=Blister.In.The.Sun.007
TTITLE3=Gone.Daddy.Gone.007
TTITLE4=Gordens.Message.007
TTITLE5=gimme.The.Car.007
TTITLE6=Country.Death.Sound.007
TTITLE7=Black.Girls.007
TTITLE8=Jesus.Walking.On.The.Water.007
TTITLE9=10.36.24.36.007
TTITLE10=I.Held.Her.In.My.Arms.007
TTITLE11=I.Hate.The.Tv.007
TTITLE12=America.Is.007
TTITLE13=Old.Mother.Reagen.007
TTITLE14=Dekradation.007
TTITLE15=Dance.M.F.Dance.007
TTITLE16=Lies.007
TTITLE17=American.Music.007
TTITLE18=Out.The.Windows.007
TTITLE19=20.Kiss.Off.007
TTITLE20=Add.It.Up.007
TTITLE21=Vancouver.007
TTITLE22=Johnny.007
EXTD=YEAR: 1993
EXTT0=
EXTT1=
EXTT2=
EXTT3=
EXTT4=
EXTT5=
EXTT6=
EXTT7=
EXTT8=
EXTT9=
EXTT10=
EXTT11=
EXTT12=
EXTT13=
EXTT14=
EXTT15=
EXTT16=
EXTT17=
EXTT18=
EXTT19=
EXTT20=
EXTT21=
EXTT22=
PLAYORDER=
